<?xml version="1.0" encoding="utf-8"?>
<svg version="1.1" width="1133.8583pt" height="283.4646pt" viewBox="0 0 1133.8583 283.4646" xmlns="http://www.w3.org/2000/svg">
  <g enable-background="new">
    <g id="Layer-1" data-name="Vrstva 1">
      <path transform="matrix(1,0,0,-1,0,283.4646)" d="M 143.8767 246.7888 L 143.8767 192.3851 C 139.7744 193.7684 136.5752 194.4853 134.3803 194.4853 C 130.0856 194.4853 126.3654 192.9095 123.3082 189.7138 C 120.2071 186.5616 118.6821 182.7437 118.6821 178.2592 C 118.6821 174.4413 120.3525 169.5747 123.7377 163.7039 L 128.0835 156.1623 C 135.9091 142.564 139.8217 129.3917 139.8217 116.7471 C 139.8217 98.1808 133.2374 82.4822 120.0178 69.5976 C 106.8454 56.7601 90.7648 50.3175 71.7216 50.3175 C 62.6077 50.3175 53.5411 52.4177 44.6162 56.6181 L 44.6162 111.8299 C 50.0102 108.394 54.8294 106.6759 59.0298 106.6759 C 63.9437 106.6759 68.0964 108.11 71.3869 110.9237 C 74.681 113.7881 76.3515 117.366 76.3515 121.661 C 76.3515 124.4307 73.6798 130.5383 68.3804 139.9397 C 59.8887 154.874 55.6413 169.7641 55.6413 184.7018 C 55.6413 202.693 62.0362 218.2022 74.8738 231.1818 C 87.711 244.2118 102.9801 250.7017 120.8293 250.7017 C 128.6549 250.7017 136.3385 249.4131 143.8767 246.7888 Z M 878.7906 245.9299 L 828.4419 159.4089 L 878.5032 55.0894 L 814.7455 55.0894 L 771.5594 160.5081 L 820.4743 245.9299 Z M 769.8413 245.9299 L 769.8413 55.0894 L 713.1008 55.0894 L 713.1008 245.9299 Z " fill="#00388f"/>
      <path transform="matrix(1,0,0,-1,0,283.4646)" d="M 164.9353 55.8655 L 164.9353 159.0523 C 164.9353 171.8289 168.8009 182.2788 176.5689 190.4051 C 184.3336 198.5284 194.3912 202.5731 206.7755 202.5731 C 221.4493 202.5731 232.7615 195.8094 240.6682 182.3159 C 245.467 189.58 250.655 194.8085 256.1672 197.9198 C 261.7135 201.0345 268.5144 202.5731 276.641 202.5731 C 289.4885 202.5731 299.3329 198.5284 306.2049 190.4051 C 313.0396 182.2788 316.4754 170.6114 316.4754 155.3661 L 316.4754 55.8655 L 273.9186 55.8655 L 273.9186 148.9946 C 273.9186 153.6109 273.5634 156.6544 272.8091 158.1559 C 272.0957 159.6609 270.5907 160.4117 268.3352 160.4117 C 264.1484 160.4117 262.038 156.8339 262.038 149.7115 L 262.038 55.8655 L 219.4809 55.8655 L 219.4809 148.9946 C 219.4809 153.5397 219.0886 156.5836 218.3346 158.1222 C 217.55 159.6609 216.0451 160.4117 213.7895 160.4117 C 209.6028 160.4117 207.4924 156.6173 207.4924 148.9946 L 207.4924 55.8655 Z M 394.1427 127.6994 L 394.1427 89.9376 L 381.8667 89.9376 L 381.8667 55.8655 L 339.3096 55.8655 L 339.3096 146.8811 C 339.3096 164.4902 344.1053 178.2003 353.7332 187.9364 C 363.3276 197.7066 376.8548 202.5731 394.251 202.5731 C 411.0352 202.5731 423.4567 198.1361 431.4716 189.2959 C 439.5237 180.4558 443.5345 166.8169 443.5345 148.3486 L 443.5345 55.8655 L 400.9776 55.8655 L 400.9776 145.5216 C 400.9776 151.105 400.2979 155.0075 398.9755 157.155 C 397.6498 159.3363 395.286 160.4117 391.8501 160.4117 C 385.1946 160.4117 381.8667 155.4369 381.8667 145.5216 L 381.8667 127.6994 Z M 511.8951 160.52 L 511.8951 55.8655 L 469.338 55.8655 L 469.338 198.9952 L 523.9919 198.9952 C 540.6338 198.9952 553.5187 194.8793 562.68 186.611 C 572.883 177.3751 577.9998 165.674 577.9998 151.5005 C 577.9998 137.0027 571.6655 124.8347 559.0312 114.8854 L 583.5461 55.8655 L 538.8786 55.8655 L 518.2294 102.0008 L 518.2294 138.795 L 521.5941 138.795 C 530.5391 138.795 535.0133 142.6603 535.0133 150.3541 C 535.0133 157.1179 529.8256 160.52 519.4806 160.52 Z M 660.0702 157.9059 L 660.0702 55.8655 L 617.5131 55.8655 L 617.5131 157.9059 L 584.909 157.9059 L 584.909 198.9952 L 692.6034 198.9952 L 692.6034 157.9059 Z M 969.3394 143.303 L 969.3394 111.4123 L 941.5304 111.4123 C 937.7734 111.4123 935.0881 110.8409 933.512 109.7314 C 931.9397 108.6222 931.1516 106.7624 931.1516 104.1109 C 931.1516 101.1044 931.9397 99.1363 933.5494 98.1723 C 935.1592 97.2391 938.4531 96.7757 943.4276 96.7757 L 972.0618 96.7757 L 972.0618 55.8655 L 938.5951 55.8655 C 922.883 55.8655 910.8573 59.6228 902.5549 67.1406 C 894.2153 74.6552 890.0623 85.5006 890.0623 99.7112 L 890.0623 155.7955 C 890.0623 169.5022 893.9988 180.1312 901.838 187.683 C 909.7109 195.2379 920.7729 198.9952 935.0169 198.9952 L 972.0618 198.9952 L 972.0618 157.9059 L 944.8954 157.9059 C 937.5568 157.9059 933.8706 155.5081 933.8706 150.7465 C 933.8706 147.9563 934.7295 146.022 936.4847 144.9499 C 938.2365 143.8407 941.3512 143.303 945.8254 143.303 Z M 1097.3656 198.9952 L 1056.8849 135.3591 L 1056.8849 55.8655 L 1014.3281 55.8655 L 1014.3281 135.3591 L 973.5262 198.9952 L 1016.729 198.9952 L 1035.1973 169.5393 L 1054.9877 198.9952 Z " style="fill: rgb(255, 255, 255);"/>
    </g>
  </g>
</svg>